<svg width="28" height="32" viewBox="0 0 28 32" fill="none" xmlns="http://www.w3.org/2000/svg">
<path d="M8.82324 16.3164L8.11614 17.0235L8.12175 17.0291L8.12745 17.0346L8.82324 16.3164ZM19.1455 16.3164L18.4497 15.5982L18.444 15.6037L18.4384 15.6093L19.1455 16.3164ZM21.333 11.1895H22.333V10.1895H21.333V11.1895ZM18.3936 11.1895V10.1895H17.3936V11.1895H18.3936ZM9.64355 11.1895H10.6436V10.1895H9.64355V11.1895ZM6.7041 11.1895V10.1895H5.7041V11.1895H6.7041ZM9.64355 8.25H8.64355V9.25H9.64355V8.25ZM18.3936 8.25V9.25H19.3936V8.25H18.3936ZM26.2549 30.7402L26.9332 31.475L26.9479 31.4615L26.962 31.4473L26.2549 30.7402ZM1.78223 30.7402L1.07512 31.4473L1.08926 31.4615L1.10395 31.475L1.78223 30.7402ZM6.7041 8.25V9.25H7.7041V8.25H6.7041ZM8.82324 3.12305L8.11614 2.41594L8.82324 3.12305ZM19.1455 3.12305L18.4273 3.81884L18.4383 3.83024L18.4497 3.84129L19.1455 3.12305ZM21.333 8.25H20.333V9.25H21.333V8.25ZM8.12745 17.0346C9.7697 18.6256 11.75 19.4355 14.0186 19.4355V17.4355C12.2767 17.4355 10.7935 16.8328 9.51904 15.5982L8.12745 17.0346ZM14.0186 19.4355C16.2879 19.4355 18.2516 18.6246 19.8526 17.0235L18.4384 15.6093C17.2139 16.8338 15.7596 17.4355 14.0186 17.4355V19.4355ZM19.8413 17.0346C21.4913 15.4362 22.333 13.4692 22.333 11.1895H20.333C20.333 12.9201 19.7164 14.3711 18.4497 15.5982L19.8413 17.0346ZM21.333 10.1895H18.3936V12.1895H21.333V10.1895ZM17.3936 11.1895C17.3936 12.0994 17.073 12.8732 16.3876 13.5585L17.8018 14.9727C18.8482 13.9263 19.3936 12.6493 19.3936 11.1895H17.3936ZM16.3876 13.5585C15.7023 14.2439 14.9285 14.5645 14.0186 14.5645V16.5645C15.4784 16.5645 16.7554 16.0191 17.8018 14.9727L16.3876 13.5585ZM14.0186 14.5645C13.1086 14.5645 12.3349 14.2439 11.6495 13.5585L10.2353 14.9727C11.2817 16.0191 12.5587 16.5645 14.0186 16.5645V14.5645ZM11.6495 13.5585C10.9641 12.8732 10.6436 12.0994 10.6436 11.1895H8.64355C8.64355 12.6493 9.18887 13.9263 10.2353 14.9727L11.6495 13.5585ZM9.64355 10.1895H6.7041V12.1895H9.64355V10.1895ZM5.7041 11.1895C5.7041 13.4588 6.51507 15.4224 8.11614 17.0235L9.53035 15.6093C8.30589 14.3848 7.7041 12.9305 7.7041 11.1895H5.7041ZM17.8018 4.46672C16.7554 3.42031 15.4784 2.875 14.0186 2.875V4.875C14.9285 4.875 15.7023 5.19557 16.3876 5.88093L17.8018 4.46672ZM14.0186 2.875C12.5587 2.875 11.2817 3.42031 10.2353 4.46672L11.6495 5.88093C12.3349 5.19557 13.1086 4.875 14.0186 4.875V2.875ZM10.2353 4.46672C9.18887 5.51313 8.64355 6.79013 8.64355 8.25H10.6436C10.6436 7.34008 10.9641 6.5663 11.6495 5.88093L10.2353 4.46672ZM9.64355 9.25H18.3936V7.25H9.64355V9.25ZM19.3936 8.25C19.3936 6.79013 18.8482 5.51313 17.8018 4.46672L16.3876 5.88093C17.073 6.5663 17.3936 7.34008 17.3936 8.25H19.3936ZM24.2041 9.25C24.6907 9.25 25.126 9.424 25.5478 9.84578L26.962 8.43157C26.1989 7.66844 25.267 7.25 24.2041 7.25V9.25ZM25.5478 9.84578C25.9696 10.2676 26.1436 10.7029 26.1436 11.1895H28.1436C28.1436 10.1266 27.7251 9.19469 26.962 8.43157L25.5478 9.84578ZM26.1436 11.1895V28.6895H28.1436V11.1895H26.1436ZM26.1436 28.6895C26.1436 29.176 25.9696 29.6114 25.5478 30.0331L26.962 31.4473C27.7251 30.6842 28.1436 29.7523 28.1436 28.6895H26.1436ZM25.5766 30.0054C25.1606 30.3894 24.7164 30.5605 24.2041 30.5605V32.5605C25.2413 32.5605 26.1643 32.1848 26.9332 31.475L25.5766 30.0054ZM24.2041 30.5605H3.83301V32.5605H24.2041V30.5605ZM3.83301 30.5605C3.32071 30.5605 2.87652 30.3894 2.46051 30.0054L1.10395 31.475C1.87283 32.1848 2.79583 32.5605 3.83301 32.5605V30.5605ZM2.48933 30.0331C2.06756 29.6114 1.89355 29.176 1.89355 28.6895H-0.106445C-0.106445 29.7523 0.311999 30.6842 1.07512 31.4473L2.48933 30.0331ZM1.89355 28.6895V11.1895H-0.106445V28.6895H1.89355ZM1.89355 11.1895C1.89355 10.7029 2.06756 10.2676 2.48933 9.84578L1.07512 8.43157C0.311999 9.19469 -0.106445 10.1266 -0.106445 11.1895H1.89355ZM2.48933 9.84578C2.91111 9.424 3.34642 9.25 3.83301 9.25V7.25C2.77012 7.25 1.83824 7.66844 1.07512 8.43157L2.48933 9.84578ZM3.83301 9.25H6.7041V7.25H3.83301V9.25ZM7.7041 8.25C7.7041 6.50892 8.30589 5.05461 9.53035 3.83015L8.11614 2.41594C6.51507 4.017 5.7041 5.98066 5.7041 8.25H7.7041ZM9.53035 3.83015C10.8071 2.55337 12.2869 1.93555 14.0186 1.93555V-0.0644531C11.7398 -0.0644531 9.75602 0.776055 8.11614 2.41594L9.53035 3.83015ZM14.0186 1.93555C15.7492 1.93555 17.2002 2.55219 18.4273 3.81884L19.8637 2.42725C18.2653 0.777237 16.2983 -0.0644531 14.0186 -0.0644531V1.93555ZM18.4497 3.84129C19.7164 5.06836 20.333 6.51933 20.333 8.25H22.333C22.333 5.97025 21.4913 4.00326 19.8413 2.40481L18.4497 3.84129ZM21.333 9.25H24.2041V7.25H21.333V9.25Z" fill="black" fill-opacity="0.5"/>
</svg>
